<?xml version="1.0" standalone="no"?><!DOCTYPE svg PUBLIC "-//W3C//DTD SVG 1.1//EN" "http://www.w3.org/Graphics/SVG/1.1/DTD/svg11.dtd"><svg t="1609624651574" class="icon" viewBox="0 0 1024 1024" version="1.1" xmlns="http://www.w3.org/2000/svg" p-id="2869" xmlns:xlink="http://www.w3.org/1999/xlink" width="200" height="200"><defs><style type="text/css"></style></defs><path d="M512 736c-70.4 0-128-57.6-128-128 0-19.2 12.8-32 32-32s32 12.8 32 32c0 35.2 28.8 64 64 64s64-28.8 64-64c0-32-25.6-64-64-64-70.4 0-128-57.6-128-128s57.6-128 128-128 128 57.6 128 128c0 19.2-12.8 32-32 32s-32-12.8-32-32c0-35.2-28.8-64-64-64s-64 28.8-64 64 28.8 64 64 64c70.4 0 128 57.6 128 128s-57.6 128-128 128z" fill="#1296db" p-id="2870"></path><path d="M512 800c-19.2 0-32-12.8-32-32v-64c0-19.2 12.8-32 32-32s32 12.8 32 32v64c0 19.2-12.8 32-32 32zM512 352c-19.2 0-32-12.8-32-32V256c0-19.2 12.8-32 32-32s32 12.8 32 32v64c0 19.2-12.8 32-32 32z" fill="#1296db" p-id="2871"></path><path d="M512 992C246.4 992 32 777.6 32 512S246.4 32 512 32s480 214.4 480 480-214.4 480-480 480z m0-896C281.6 96 96 281.6 96 512s185.6 416 416 416 416-185.6 416-416S742.4 96 512 96z" fill="#1296db" p-id="2872"></path></svg>